{
    "asset" : {
        "generator" : "Khronos glTF Blender I/O v0.9.36",
        "version" : "2.0"
    },
    "scene" : 0,
    "scenes" : [
        {
            "name" : "Scene",
            "nodes" : [
                0,
                1,
                2,
                3,
                4
            ]
        }
    ],
    "nodes" : [
        {
            "mesh" : 0,
            "name" : "2d51567e-b564-42f8-a00c-3d769b3fa67a",
            "rotation" : [
                0.7071067690849304,
                0,
                0,
                0.7071067690849304
            ],
            "translation" : [
                0,
                0.6377503275871277,
                0
            ]
        },
        {
            "mesh" : 1,
            "name" : "6b4c3cf5-efd8-4819-9366-0b15db7a17d4",
            "rotation" : [
                0.7071067690849304,
                0,
                0,
                0.7071067690849304
            ],
            "translation" : [
                1.572222352027893,
                0.6377503275871277,
                0
            ]
        },
        {
            "mesh" : 2,
            "name" : "6d62bc5d-0ccc-4e61-9096-2cddfee1fbd7",
            "rotation" : [
                0.7071067690849304,
                0,
                0,
                0.7071067690849304
            ],
            "translation" : [
                3.3297009468078613,
                0.6377503275871277,
                0
            ]
        },
        {
            "mesh" : 3,
            "name" : "6e42c2d2-f4d9-4e2f-b1fe-ad697c7412c6",
            "rotation" : [
                0.7071067690849304,
                0,
                0,
                0.7071067690849304
            ],
            "translation" : [
                5.217949867248535,
                0.6377503275871277,
                0
            ]
        },
        {
            "mesh" : 4,
            "name" : "ad7bea85-f0a3-4200-9af1-7838a6eca0d2",
            "rotation" : [
                0.7071067690849304,
                0,
                0,
                0.7071067690849304
            ],
            "translation" : [
                7.204131126403809,
                0.6377503275871277,
                0
            ]
        }
    ],
    "materials" : [
        {
            "doubleSided" : true,
            "name" : "2d51567e-b564-42f8-a00c-3d769b3fa67a",
            "pbrMetallicRoughness" : {
                "baseColorTexture" : {
                    "index" : 0,
                    "texCoord" : 0
                },
                "metallicFactor" : 0,
                "roughnessFactor" : 0.5
            }
        },
        {
            "doubleSided" : true,
            "name" : "6b4c3cf5-efd8-4819-9366-0b15db7a17d4",
            "pbrMetallicRoughness" : {
                "baseColorTexture" : {
                    "index" : 1,
                    "texCoord" : 0
                },
                "metallicFactor" : 0,
                "roughnessFactor" : 0.5
            }
        },
        {
            "doubleSided" : true,
            "name" : "6d62bc5d-0ccc-4e61-9096-2cddfee1fbd7",
            "pbrMetallicRoughness" : {
                "baseColorTexture" : {
                    "index" : 2,
                    "texCoord" : 0
                },
                "metallicFactor" : 0,
                "roughnessFactor" : 0.5
            }
        },
        {
            "doubleSided" : true,
            "name" : "6e42c2d2-f4d9-4e2f-b1fe-ad697c7412c6",
            "pbrMetallicRoughness" : {
                "baseColorTexture" : {
                    "index" : 3,
                    "texCoord" : 0
                },
                "metallicFactor" : 0,
                "roughnessFactor" : 0.5
            }
        },
        {
            "doubleSided" : true,
            "name" : "ad7bea85-f0a3-4200-9af1-7838a6eca0d2",
            "pbrMetallicRoughness" : {
                "baseColorTexture" : {
                    "index" : 4,
                    "texCoord" : 0
                },
                "metallicFactor" : 0,
                "roughnessFactor" : 0.5
            }
        }
    ],
    "meshes" : [
        {
            "name" : "2d51567e-b564-42f8-a00c-3d769b3fa67a",
            "primitives" : [
                {
                    "attributes" : {
                        "POSITION" : 0,
                        "NORMAL" : 1,
                        "TEXCOORD_0" : 2
                    },
                    "indices" : 3,
                    "material" : 0
                }
            ]
        },
        {
            "name" : "6b4c3cf5-efd8-4819-9366-0b15db7a17d4",
            "primitives" : [
                {
                    "attributes" : {
                        "POSITION" : 4,
                        "NORMAL" : 5,
                        "TEXCOORD_0" : 6
                    },
                    "indices" : 3,
                    "material" : 1
                }
            ]
        },
        {
            "name" : "6d62bc5d-0ccc-4e61-9096-2cddfee1fbd7",
            "primitives" : [
                {
                    "attributes" : {
                        "POSITION" : 7,
                        "NORMAL" : 8,
                        "TEXCOORD_0" : 9
                    },
                    "indices" : 3,
                    "material" : 2
                }
            ]
        },
        {
            "name" : "6e42c2d2-f4d9-4e2f-b1fe-ad697c7412c6",
            "primitives" : [
                {
                    "attributes" : {
                        "POSITION" : 10,
                        "NORMAL" : 11,
                        "TEXCOORD_0" : 12
                    },
                    "indices" : 3,
                    "material" : 3
                }
            ]
        },
        {
            "name" : "ad7bea85-f0a3-4200-9af1-7838a6eca0d2",
            "primitives" : [
                {
                    "attributes" : {
                        "POSITION" : 13,
                        "NORMAL" : 14,
                        "TEXCOORD_0" : 15
                    },
                    "indices" : 3,
                    "material" : 4
                }
            ]
        }
    ],
    "textures" : [
        {
            "source" : 0
        },
        {
            "source" : 1
        },
        {
            "source" : 2
        },
        {
            "source" : 3
        },
        {
            "source" : 4
        }
    ],
    "images" : [
        {
            "bufferView" : 4,
            "mimeType" : "image/jpeg",
            "name" : "2d51567e-b564-42f8-a00c-3d769b3fa67a"
        },
        {
            "bufferView" : 8,
            "mimeType" : "image/jpeg",
            "name" : "6b4c3cf5-efd8-4819-9366-0b15db7a17d4"
        },
        {
            "bufferView" : 12,
            "mimeType" : "image/jpeg",
            "name" : "6d62bc5d-0ccc-4e61-9096-2cddfee1fbd7"
        },
        {
            "bufferView" : 16,
            "mimeType" : "image/jpeg",
            "name" : "6e42c2d2-f4d9-4e2f-b1fe-ad697c7412c6"
        },
        {
            "bufferView" : 20,
            "mimeType" : "image/jpeg",
            "name" : "ad7bea85-f0a3-4200-9af1-7838a6eca0d2"
        }
    ],
    "accessors" : [
        {
            "bufferView" : 0,
            "componentType" : 5126,
            "count" : 4,
            "max" : [
                0.6416666507720947,
                0,
                0.5
            ],
            "min" : [
                -0.6416666507720947,
                0,
                -0.5
            ],
            "type" : "VEC3"
        },
        {
            "bufferView" : 1,
            "componentType" : 5126,
            "count" : 4,
            "type" : "VEC3"
        },
        {
            "bufferView" : 2,
            "componentType" : 5126,
            "count" : 4,
            "type" : "VEC2"
        },
        {
            "bufferView" : 3,
            "componentType" : 5123,
            "count" : 6,
            "type" : "SCALAR"
        },
        {
            "bufferView" : 5,
            "componentType" : 5126,
            "count" : 4,
            "max" : [
                0.8305555582046509,
                0,
                0.5
            ],
            "min" : [
                -0.8305555582046509,
                0,
                -0.5
            ],
            "type" : "VEC3"
        },
        {
            "bufferView" : 6,
            "componentType" : 5126,
            "count" : 4,
            "type" : "VEC3"
        },
        {
            "bufferView" : 7,
            "componentType" : 5126,
            "count" : 4,
            "type" : "VEC2"
        },
        {
            "bufferView" : 9,
            "componentType" : 5126,
            "count" : 4,
            "max" : [
                0.8269230723381042,
                0,
                0.5
            ],
            "min" : [
                -0.8269230723381042,
                0,
                -0.5
            ],
            "type" : "VEC3"
        },
        {
            "bufferView" : 10,
            "componentType" : 5126,
            "count" : 4,
            "type" : "VEC3"
        },
        {
            "bufferView" : 11,
            "componentType" : 5126,
            "count" : 4,
            "type" : "VEC2"
        },
        {
            "bufferView" : 13,
            "componentType" : 5126,
            "count" : 4,
            "max" : [
                0.9613259434700012,
                0,
                0.5
            ],
            "min" : [
                -0.9613259434700012,
                0,
                -0.5
            ],
            "type" : "VEC3"
        },
        {
            "bufferView" : 14,
            "componentType" : 5126,
            "count" : 4,
            "type" : "VEC3"
        },
        {
            "bufferView" : 15,
            "componentType" : 5126,
            "count" : 4,
            "type" : "VEC2"
        },
        {
            "bufferView" : 17,
            "componentType" : 5126,
            "count" : 4,
            "max" : [
                0.9248554706573486,
                0,
                0.5
            ],
            "min" : [
                -0.9248554706573486,
                0,
                -0.5
            ],
            "type" : "VEC3"
        },
        {
            "bufferView" : 18,
            "componentType" : 5126,
            "count" : 4,
            "type" : "VEC3"
        },
        {
            "bufferView" : 19,
            "componentType" : 5126,
            "count" : 4,
            "type" : "VEC2"
        }
    ],
    "bufferViews" : [
        {
            "buffer" : 0,
            "byteLength" : 48,
            "byteOffset" : 0
        },
        {
            "buffer" : 0,
            "byteLength" : 48,
            "byteOffset" : 48
        },
        {
            "buffer" : 0,
            "byteLength" : 32,
            "byteOffset" : 96
        },
        {
            "buffer" : 0,
            "byteLength" : 12,
            "byteOffset" : 128
        },
        {
            "buffer" : 0,
            "byteLength" : 55472,
            "byteOffset" : 140
        },
        {
            "buffer" : 0,
            "byteLength" : 48,
            "byteOffset" : 55612
        },
        {
            "buffer" : 0,
            "byteLength" : 48,
            "byteOffset" : 55660
        },
        {
            "buffer" : 0,
            "byteLength" : 32,
            "byteOffset" : 55708
        },
        {
            "buffer" : 0,
            "byteLength" : 42768,
            "byteOffset" : 55740
        },
        {
            "buffer" : 0,
            "byteLength" : 48,
            "byteOffset" : 98508
        },
        {
            "buffer" : 0,
            "byteLength" : 48,
            "byteOffset" : 98556
        },
        {
            "buffer" : 0,
            "byteLength" : 32,
            "byteOffset" : 98604
        },
        {
            "buffer" : 0,
            "byteLength" : 103788,
            "byteOffset" : 98636
        },
        {
            "buffer" : 0,
            "byteLength" : 48,
            "byteOffset" : 202424
        },
        {
            "buffer" : 0,
            "byteLength" : 48,
            "byteOffset" : 202472
        },
        {
            "buffer" : 0,
            "byteLength" : 32,
            "byteOffset" : 202520
        },
        {
            "buffer" : 0,
            "byteLength" : 73278,
            "byteOffset" : 202552
        },
        {
            "buffer" : 0,
            "byteLength" : 48,
            "byteOffset" : 275832
        },
        {
            "buffer" : 0,
            "byteLength" : 48,
            "byteOffset" : 275880
        },
        {
            "buffer" : 0,
            "byteLength" : 32,
            "byteOffset" : 275928
        },
        {
            "buffer" : 0,
            "byteLength" : 234792,
            "byteOffset" : 275960
        }
    ],
    "buffers" : [
        {
            "byteLength" : 510752,
            "uri" : "data:application/octet-stream;base64,"
        }
    ]
}
