{
    "asset" : {
        "generator" : "Khronos glTF Blender I/O v0.9.36",
        "version" : "2.0"
    },
    "scene" : 0,
    "scenes" : [
        {
            "name" : "Scene",
            "nodes" : [
                0,
                1,
                2,
                3,
                4,
                5
            ]
        }
    ],
    "nodes" : [
        {
            "mesh" : 0,
            "name" : "2d51567e-b564-42f8-a00c-3d769b3fa67a",
            "rotation" : [
                0.7071067690849304,
                0,
                0,
                0.7071067690849304
            ]
        },
        {
            "mesh" : 1,
            "name" : "6b4c3cf5-efd8-4819-9366-0b15db7a17d4",
            "rotation" : [
                0.7071067690849304,
                0,
                0,
                0.7071067690849304
            ]
        },
        {
            "mesh" : 2,
            "name" : "6e42c2d2-f4d9-4e2f-b1fe-ad697c7412c6",
            "rotation" : [
                0.7071067690849304,
                0,
                0,
                0.7071067690849304
            ]
        },
        {
            "name" : "BezierCircle",
            "rotation" : [
                0.08450190722942352,
                -0.07527582347393036,
                -0.011692830361425877,
                0.9935070276260376
            ],
            "scale" : [
                1.2228713035583496,
                1.2228713035583496,
                1.2228713035583496
            ]
        },
        {
            "name" : "BezierCircle.001",
            "rotation" : [
                -0.02227502129971981,
                0.7536296844482422,
                -0.025573601946234703,
                0.6564236879348755
            ],
            "scale" : [
                2.9846718311309814,
                2.9846718311309814,
                2.9846718311309814
            ]
        },
        {
            "name" : "BezierCircle.002",
            "rotation" : [
                0.022373730316758156,
                -0.6754526495933533,
                0.024401159957051277,
                0.736659824848175
            ],
            "scale" : [
                4.9764723777771,
                4.9764723777771,
                4.9764723777771
            ]
        }
    ],
    "materials" : [
        {
            "doubleSided" : true,
            "name" : "2d51567e-b564-42f8-a00c-3d769b3fa67a",
            "pbrMetallicRoughness" : {
                "baseColorTexture" : {
                    "index" : 0,
                    "texCoord" : 0
                },
                "metallicFactor" : 0,
                "roughnessFactor" : 0.5
            }
        },
        {
            "doubleSided" : true,
            "name" : "6b4c3cf5-efd8-4819-9366-0b15db7a17d4",
            "pbrMetallicRoughness" : {
                "baseColorTexture" : {
                    "index" : 1,
                    "texCoord" : 0
                },
                "metallicFactor" : 0,
                "roughnessFactor" : 0.5
            }
        },
        {
            "doubleSided" : true,
            "name" : "6e42c2d2-f4d9-4e2f-b1fe-ad697c7412c6",
            "pbrMetallicRoughness" : {
                "baseColorTexture" : {
                    "index" : 2,
                    "texCoord" : 0
                },
                "metallicFactor" : 0,
                "roughnessFactor" : 0.5
            }
        }
    ],
    "meshes" : [
        {
            "name" : "2d51567e-b564-42f8-a00c-3d769b3fa67a",
            "primitives" : [
                {
                    "attributes" : {
                        "POSITION" : 0,
                        "NORMAL" : 1,
                        "TEXCOORD_0" : 2
                    },
                    "indices" : 3,
                    "material" : 0
                }
            ]
        },
        {
            "name" : "6b4c3cf5-efd8-4819-9366-0b15db7a17d4",
            "primitives" : [
                {
                    "attributes" : {
                        "POSITION" : 4,
                        "NORMAL" : 5,
                        "TEXCOORD_0" : 6
                    },
                    "indices" : 3,
                    "material" : 1
                }
            ]
        },
        {
            "name" : "6e42c2d2-f4d9-4e2f-b1fe-ad697c7412c6",
            "primitives" : [
                {
                    "attributes" : {
                        "POSITION" : 7,
                        "NORMAL" : 8,
                        "TEXCOORD_0" : 9
                    },
                    "indices" : 3,
                    "material" : 2
                }
            ]
        }
    ],
    "textures" : [
        {
            "source" : 0
        },
        {
            "source" : 1
        },
        {
            "source" : 2
        }
    ],
    "images" : [
        {
            "bufferView" : 4,
            "mimeType" : "image/jpeg",
            "name" : "2d51567e-b564-42f8-a00c-3d769b3fa67a"
        },
        {
            "bufferView" : 8,
            "mimeType" : "image/jpeg",
            "name" : "6b4c3cf5-efd8-4819-9366-0b15db7a17d4"
        },
        {
            "bufferView" : 12,
            "mimeType" : "image/jpeg",
            "name" : "6e42c2d2-f4d9-4e2f-b1fe-ad697c7412c6"
        }
    ],
    "accessors" : [
        {
            "bufferView" : 0,
            "componentType" : 5126,
            "count" : 4,
            "max" : [
                0.6416666507720947,
                0,
                0.5
            ],
            "min" : [
                -0.6416666507720947,
                0,
                -0.5
            ],
            "type" : "VEC3"
        },
        {
            "bufferView" : 1,
            "componentType" : 5126,
            "count" : 4,
            "type" : "VEC3"
        },
        {
            "bufferView" : 2,
            "componentType" : 5126,
            "count" : 4,
            "type" : "VEC2"
        },
        {
            "bufferView" : 3,
            "componentType" : 5123,
            "count" : 6,
            "type" : "SCALAR"
        },
        {
            "bufferView" : 5,
            "componentType" : 5126,
            "count" : 4,
            "max" : [
                0.8305555582046509,
                0,
                0.5
            ],
            "min" : [
                -0.8305555582046509,
                0,
                -0.5
            ],
            "type" : "VEC3"
        },
        {
            "bufferView" : 6,
            "componentType" : 5126,
            "count" : 4,
            "type" : "VEC3"
        },
        {
            "bufferView" : 7,
            "componentType" : 5126,
            "count" : 4,
            "type" : "VEC2"
        },
        {
            "bufferView" : 9,
            "componentType" : 5126,
            "count" : 4,
            "max" : [
                0.9613259434700012,
                0,
                0.5
            ],
            "min" : [
                -0.9613259434700012,
                0,
                -0.5
            ],
            "type" : "VEC3"
        },
        {
            "bufferView" : 10,
            "componentType" : 5126,
            "count" : 4,
            "type" : "VEC3"
        },
        {
            "bufferView" : 11,
            "componentType" : 5126,
            "count" : 4,
            "type" : "VEC2"
        }
    ],
    "bufferViews" : [
        {
            "buffer" : 0,
            "byteLength" : 48,
            "byteOffset" : 0
        },
        {
            "buffer" : 0,
            "byteLength" : 48,
            "byteOffset" : 48
        },
        {
            "buffer" : 0,
            "byteLength" : 32,
            "byteOffset" : 96
        },
        {
            "buffer" : 0,
            "byteLength" : 12,
            "byteOffset" : 128
        },
        {
            "buffer" : 0,
            "byteLength" : 55472,
            "byteOffset" : 140
        },
        {
            "buffer" : 0,
            "byteLength" : 48,
            "byteOffset" : 55612
        },
        {
            "buffer" : 0,
            "byteLength" : 48,
            "byteOffset" : 55660
        },
        {
            "buffer" : 0,
            "byteLength" : 32,
            "byteOffset" : 55708
        },
        {
            "buffer" : 0,
            "byteLength" : 42768,
            "byteOffset" : 55740
        },
        {
            "buffer" : 0,
            "byteLength" : 48,
            "byteOffset" : 98508
        },
        {
            "buffer" : 0,
            "byteLength" : 48,
            "byteOffset" : 98556
        },
        {
            "buffer" : 0,
            "byteLength" : 32,
            "byteOffset" : 98604
        },
        {
            "buffer" : 0,
            "byteLength" : 73278,
            "byteOffset" : 98636
        }
    ],
    "buffers" : [
        {
            "byteLength" : 171916,
            "uri" : "data:application/octet-stream;base64,"
        }
    ]
}
